<svg xmlns="http://www.w3.org/2000/svg" xmlns:xlink="http://www.w3.org/1999/xlink" width="800" zoomAndPan="magnify" viewBox="0 0 600 599.999999" height="800" preserveAspectRatio="xMidYMid meet" version="1.0"><defs><g/></defs><g fill="#000000" fill-opacity="1"><g transform="translate(81.118034, 328.125006)"><g><path d="M 47.652344 -1.375 L 49.832031 -0.0820312 L 52.09375 0.160156 L 53.871094 -0.402344 L 54.679688 -2.019531 L 54.839844 -31.5 L 54.597656 -32.871094 L 54.597656 -40.867188 L 54.839844 -42.808594 L 54.597656 -54.035156 L 53.792969 -55.648438 L 52.175781 -56.539062 L 42.160156 -56.457031 L 40.625 -55.566406 L 39.738281 -53.871094 L 39.65625 -52.175781 L 39.898438 -50.882812 L 39.65625 -47.492188 L 39.820312 -45.714844 L 39.65625 -31.257812 L 39.171875 -29.882812 L 37.960938 -30.449219 L 32.226562 -36.183594 L 29.964844 -37.960938 L 14.054688 -54.035156 L 12.84375 -55.003906 L 10.984375 -55.972656 L 8.5625 -56.539062 L 6.703125 -55.730469 L 5.976562 -54.195312 L 5.976562 -29.722656 L 5.894531 -28.347656 L 6.058594 -25.039062 L 5.816406 -23.664062 L 5.976562 -10.417969 L 5.816406 -8.882812 L 5.976562 -2.101562 L 6.703125 -0.566406 L 8.398438 0 L 11.710938 0.160156 L 13.488281 0 L 16.636719 0.242188 L 18.335938 0.160156 L 19.949219 -0.644531 L 20.757812 -3.148438 L 20.839844 -23.585938 L 21 -25.199219 L 21.566406 -26.574219 L 22.613281 -26.167969 L 23.664062 -24.796875 L 29.398438 -19.304688 L 30.449219 -18.09375 L 31.824219 -17.203125 L 44.339844 -4.765625 L 46.441406 -2.421875 Z M 47.652344 -1.375 "/></g></g></g><g fill="#000000" fill-opacity="1"><g transform="translate(142.015294, 328.125006)"><g><path d="M 8.398438 0.242188 L 10.015625 0 L 13.164062 0.160156 L 14.941406 -0.0820312 L 17.527344 0.0820312 L 19.789062 -0.886719 L 20.757812 -2.34375 L 20.515625 -10.824219 L 20.757812 -13.328125 L 20.675781 -15.023438 L 20.839844 -17.929688 L 20.675781 -19.707031 L 20.675781 -22.855469 L 21.402344 -23.585938 L 22.210938 -23.261719 L 23.503906 -22.210938 L 24.472656 -21 L 27.785156 -17.6875 L 28.835938 -16.394531 L 31.015625 -14.296875 L 32.710938 -13.085938 L 34.488281 -13.003906 L 36.101562 -14.214844 L 37.234375 -15.425781 L 38.203125 -16.394531 L 40.464844 -19.0625 L 41.59375 -19.867188 L 44.90625 -23.261719 L 45.957031 -23.746094 L 46.601562 -22.535156 L 46.441406 -18.09375 L 46.683594 -14.859375 L 46.523438 -11.710938 L 46.683594 -8.722656 L 46.523438 -7.269531 L 46.683594 -3.632812 L 46.683594 -2.421875 L 47.328125 -0.566406 L 49.027344 -0.0820312 L 58.796875 0.242188 L 60.496094 -0.644531 L 61.464844 -2.988281 L 61.222656 -7.1875 L 61.382812 -8.804688 L 61.222656 -33.035156 L 61.382812 -34.8125 L 61.300781 -42.808594 L 61.382812 -44.339844 L 61.222656 -47.8125 L 61.300781 -49.1875 L 61.222656 -52.5 L 61.382812 -54.035156 L 60.414062 -55.730469 L 58.71875 -56.617188 L 56.375 -55.890625 L 54.679688 -54.839844 L 51.289062 -51.289062 L 50.238281 -49.996094 L 49.269531 -49.105469 L 48.136719 -47.652344 L 41.03125 -40.382812 L 39.980469 -39.011719 L 35.054688 -34.003906 L 33.597656 -33.035156 L 31.902344 -33.679688 L 30.933594 -35.054688 L 29.804688 -36.183594 L 28.347656 -38.042969 L 26.574219 -39.65625 L 19.222656 -47.8125 L 18.09375 -48.785156 L 15.992188 -51.289062 L 14.699219 -52.417969 L 12.601562 -54.597656 L 10.742188 -55.972656 L 8.480469 -56.617188 L 6.703125 -55.808594 L 5.816406 -54.113281 L 6.058594 -49.1875 L 5.816406 -46.039062 L 5.976562 -44.582031 L 5.894531 -31.660156 L 6.058594 -30.046875 L 5.816406 -21.886719 L 5.976562 -20.351562 L 5.894531 -2.503906 L 6.785156 -0.808594 Z M 8.398438 0.242188 "/></g></g></g><g fill="#000000" fill-opacity="1"><g transform="translate(209.535341, 328.125006)"><g/></g></g><g fill="#000000" fill-opacity="1"><g transform="translate(231.422818, 328.125006)"><g><path d="M 24.875 0.242188 L 27.300781 0.242188 L 29.804688 -0.0820312 L 31.417969 -0.0820312 L 33.761719 -0.808594 L 37.074219 -1.375 L 40.867188 -2.988281 L 46.28125 -6.621094 L 50.238281 -11.710938 L 51.046875 -13.328125 L 52.015625 -14.617188 L 53.304688 -17.769531 L 53.710938 -19.304688 L 54.035156 -21 L 54.519531 -22.371094 L 54.761719 -23.988281 L 54.761719 -25.683594 L 55.003906 -28.269531 L 54.921875 -30.609375 L 53.792969 -36.992188 L 52.742188 -40.0625 L 52.09375 -41.59375 L 49.347656 -45.875 L 45.066406 -50.640625 L 40.949219 -53.386719 L 39.414062 -54.277344 L 37.800781 -54.597656 L 36.425781 -55.246094 L 34.730469 -55.648438 L 29.964844 -56.375 L 11.550781 -56.539062 L 10.097656 -56.296875 L 8.480469 -56.375 L 6.703125 -55.648438 L 5.976562 -53.953125 L 5.894531 -8.804688 L 6.058594 -7.269531 L 6.058594 -3.148438 L 6.867188 -0.644531 L 8.480469 0.160156 L 10.097656 0 L 19.949219 0.160156 L 21.566406 -0.0820312 Z M 24.632812 -13.003906 L 23.097656 -13.164062 L 21.242188 -14.054688 L 20.597656 -15.589844 L 20.515625 -16.960938 L 20.597656 -20.273438 L 20.273438 -24.230469 L 20.597656 -28.269531 L 20.433594 -39.414062 L 20.597656 -40.789062 L 21.402344 -42.644531 L 23.988281 -43.210938 L 27.378906 -43.292969 L 29.722656 -43.050781 L 32.871094 -42.160156 L 34.328125 -41.433594 L 35.539062 -40.546875 L 36.75 -39.414062 L 37.960938 -37.960938 L 38.769531 -36.585938 L 39.496094 -35.132812 L 40.789062 -28.027344 L 39.980469 -22.371094 L 38.605469 -19.382812 L 35.617188 -15.992188 L 32.871094 -14.214844 L 30.53125 -13.488281 L 27.058594 -13.085938 Z M 24.632812 -13.003906 "/></g></g></g><g fill="#000000" fill-opacity="1"><g transform="translate(290.139418, 328.125006)"><g><path d="M 28.105469 0.242188 L 39.65625 0.0820312 L 41.351562 -0.644531 L 42.242188 -2.34375 L 42.242188 -10.5 L 41.351562 -12.113281 L 39.65625 -12.84375 L 37.800781 -12.679688 L 36.265625 -12.921875 L 32.144531 -13.003906 L 29.480469 -12.679688 L 27.863281 -12.84375 L 26.089844 -12.761719 L 24.554688 -13.003906 L 22.777344 -12.84375 L 21.082031 -13.648438 L 20.433594 -15.105469 L 20.433594 -20.191406 L 21.160156 -21.886719 L 22.613281 -22.777344 L 25.039062 -22.855469 L 27.621094 -22.613281 L 30.691406 -22.777344 L 34.003906 -22.695312 L 35.617188 -22.855469 L 37.476562 -22.777344 L 39.089844 -23.421875 L 39.65625 -25.039062 L 39.898438 -32.308594 L 39.089844 -34.570312 L 37.234375 -35.617188 L 32.46875 -35.617188 L 30.773438 -35.457031 L 27.378906 -35.699219 L 22.695312 -35.539062 L 21 -36.265625 L 20.351562 -38.769531 L 20.351562 -41.273438 L 21.082031 -42.808594 L 22.855469 -43.453125 L 24.390625 -43.371094 L 25.925781 -43.695312 L 37.476562 -43.535156 L 39.011719 -43.613281 L 40.707031 -44.582031 L 41.515625 -46.039062 L 41.433594 -47.652344 L 41.515625 -49.269531 L 41.351562 -54.113281 L 40.625 -55.648438 L 39.011719 -56.296875 L 37.316406 -56.296875 L 35.859375 -56.617188 L 29.320312 -56.539062 L 27.542969 -56.375 L 25.925781 -56.539062 L 24.554688 -56.457031 L 22.9375 -56.617188 L 16.316406 -56.457031 L 14.699219 -56.699219 L 13.164062 -56.375 L 11.710938 -56.539062 L 10.097656 -56.375 L 8.480469 -56.457031 L 6.785156 -55.808594 L 5.894531 -54.113281 L 6.058594 -51.046875 L 5.816406 -47.734375 L 6.058594 -45.957031 L 5.894531 -38.042969 L 6.136719 -36.34375 L 5.976562 -34.8125 L 5.894531 -28.1875 L 6.136719 -26.734375 L 6.058594 -13.648438 L 5.894531 -12.113281 L 6.136719 -10.5 L 5.894531 -4.925781 L 6.058594 -3.148438 L 6.703125 -0.96875 L 9.125 0.0820312 L 14.941406 0.160156 L 16.71875 0 L 18.171875 0.0820312 L 21.484375 -0.160156 L 23.019531 0.160156 L 24.875 0.242188 L 26.492188 0.0820312 Z M 28.105469 0.242188 "/></g></g></g><g fill="#000000" fill-opacity="1"><g transform="translate(336.41811, 328.125006)"><g><path d="M 28.105469 0.644531 L 32.144531 0.96875 L 37.800781 0.566406 L 42.566406 -0.402344 L 44.019531 -1.210938 L 45.714844 -1.777344 L 47.085938 -2.421875 L 51.046875 -5.25 L 53.304688 -7.511719 L 55.164062 -9.933594 L 56.859375 -12.84375 L 58.960938 -18.980469 L 58.476562 -20.433594 L 56.859375 -21.484375 L 52.335938 -21.160156 L 50.722656 -21.402344 L 49.105469 -21.324219 L 47.492188 -21.402344 L 45.632812 -20.433594 L 44.339844 -19.140625 L 43.535156 -17.605469 L 41.675781 -15.507812 L 40.382812 -14.375 L 39.171875 -13.890625 L 36.34375 -12.359375 L 32.066406 -12.113281 L 29.722656 -12.359375 L 26.816406 -13.40625 L 23.988281 -14.859375 L 21.644531 -16.960938 L 19.867188 -19.789062 L 19.304688 -21.402344 L 18.738281 -22.535156 L 18.335938 -23.988281 L 18.09375 -25.765625 L 18.09375 -30.691406 L 18.65625 -33.921875 L 19.867188 -36.828125 L 20.675781 -38.363281 L 22.613281 -40.625 L 24.554688 -42.160156 L 26.734375 -43.371094 L 32.144531 -44.097656 L 35.617188 -43.9375 L 38.121094 -43.210938 L 39.574219 -42.644531 L 40.707031 -41.757812 L 43.050781 -39.414062 L 43.9375 -38.203125 L 45.472656 -36.667969 L 47.328125 -35.78125 L 48.785156 -35.941406 L 50.480469 -35.859375 L 52.09375 -35.941406 L 54.355469 -35.699219 L 56.78125 -35.941406 L 58.152344 -36.585938 L 58.71875 -38.203125 L 58.234375 -39.980469 L 57.667969 -41.433594 L 57.183594 -43.128906 L 56.296875 -44.421875 L 55.566406 -45.714844 L 54.4375 -47.085938 L 53.550781 -48.621094 L 51.289062 -50.964844 L 45.796875 -54.4375 L 38.042969 -57.023438 L 36.507812 -57.101562 L 34.890625 -57.34375 L 29.882812 -57.425781 L 22.050781 -55.890625 L 16.074219 -53.0625 L 13.730469 -51.289062 L 10.257812 -48.136719 L 8.078125 -45.390625 L 6.542969 -43.050781 L 4.523438 -38.527344 L 3.714844 -35.214844 L 2.90625 -28.269531 L 3.390625 -22.371094 L 4.523438 -17.769531 L 7.996094 -10.742188 L 11.308594 -7.1875 L 14.941406 -4.039062 L 18.414062 -2.179688 L 22.050781 -0.644531 L 23.503906 -0.324219 L 25.117188 0.242188 L 26.574219 0.566406 Z M 28.105469 0.644531 "/></g></g></g><g fill="#000000" fill-opacity="1"><g transform="translate(398.042276, 328.125006)"><g><path d="M 32.386719 1.050781 L 39.574219 0.324219 L 42.644531 -0.644531 L 49.832031 -3.875 L 55.488281 -9.289062 L 56.539062 -10.742188 L 59.6875 -16.316406 L 60.253906 -17.851562 L 60.496094 -19.464844 L 60.980469 -20.757812 L 61.300781 -22.535156 L 61.707031 -28.1875 L 61.300781 -33.761719 L 60.65625 -36.75 L 60.011719 -38.445312 L 59.605469 -40.304688 L 58.152344 -42.96875 L 57.585938 -44.421875 L 56.539062 -45.796875 L 55.566406 -46.765625 L 54.519531 -48.21875 L 51.046875 -51.367188 L 46.925781 -53.953125 L 36.34375 -57.265625 L 32.550781 -57.34375 L 26.894531 -57.023438 L 25.28125 -56.699219 L 23.664062 -56.214844 L 22.210938 -55.566406 L 19.140625 -54.761719 L 15.023438 -52.175781 L 13.890625 -51.207031 L 11.308594 -49.429688 L 9.125 -47.007812 L 6.378906 -42.96875 L 5.652344 -41.59375 L 4.121094 -37.152344 L 3.472656 -33.679688 L 3.148438 -24.3125 L 4.039062 -19.222656 L 5.25 -16.476562 L 5.734375 -14.78125 L 6.542969 -13.328125 L 10.339844 -8.15625 L 12.601562 -5.976562 L 13.648438 -4.765625 L 19.140625 -1.859375 L 20.675781 -1.210938 L 27.542969 0.808594 Z M 30.125 -13.164062 L 28.511719 -13.730469 L 27.058594 -13.890625 L 24.3125 -15.347656 L 21.808594 -17.527344 L 21 -18.65625 L 19.949219 -19.789062 L 18.414062 -24.3125 L 18.011719 -28.347656 L 18.09375 -30.773438 L 18.65625 -33.761719 L 19.140625 -35.214844 L 20.109375 -36.34375 L 20.839844 -37.71875 L 21.886719 -39.011719 L 23.097656 -40.0625 L 25.441406 -41.675781 L 26.894531 -42.402344 L 28.589844 -42.808594 L 32.308594 -43.128906 L 36.183594 -42.886719 L 40.464844 -41.03125 L 42.96875 -39.171875 L 44.824219 -36.425781 L 45.472656 -34.972656 L 45.957031 -33.355469 L 46.523438 -31.902344 L 46.84375 -28.429688 L 46.359375 -24.390625 L 45.632812 -21.082031 L 44.746094 -19.867188 L 44.019531 -18.65625 L 43.050781 -17.203125 L 40.546875 -15.265625 L 39.089844 -14.617188 L 37.800781 -13.890625 L 36.34375 -13.730469 L 34.8125 -13.328125 Z M 30.125 -13.164062 "/></g></g></g><g fill="#000000" fill-opacity="1"><g transform="translate(462.81629, 328.125006)"><g><path d="M 6.058594 -3.3125 L 6.867188 -0.808594 L 9.207031 0.242188 L 10.824219 0 L 13.40625 0.242188 L 14.699219 0.0820312 L 17.121094 0.0820312 L 19.707031 -0.726562 L 20.433594 -3.070312 L 20.433594 -5.816406 L 20.597656 -7.269531 L 20.351562 -8.964844 L 20.515625 -14.132812 L 21.242188 -15.75 L 22.777344 -16.636719 L 27.460938 -15.992188 L 29.078125 -14.617188 L 30.046875 -13.003906 L 30.691406 -11.550781 L 32.386719 -9.125 L 33.921875 -6.21875 L 34.8125 -5.007812 L 35.457031 -3.390625 L 36.34375 -2.019531 L 38.121094 -0.566406 L 40.867188 0.160156 L 47.25 0.0820312 L 48.785156 0.242188 L 51.449219 0.160156 L 52.984375 -0.566406 L 53.46875 -2.34375 L 52.578125 -4.121094 L 51.609375 -5.25 L 50.964844 -6.785156 L 48.21875 -10.902344 L 47.492188 -12.359375 L 44.90625 -16.558594 L 43.9375 -17.769531 L 43.855469 -19.707031 L 44.582031 -21.484375 L 45.714844 -22.695312 L 46.84375 -23.664062 L 49.996094 -29.320312 L 51.046875 -34.003906 L 50.882812 -39.089844 L 50.640625 -40.707031 L 49.1875 -45.3125 L 48.542969 -46.683594 L 47.652344 -47.976562 L 43.050781 -52.820312 L 40.222656 -54.355469 L 37.152344 -55.40625 L 32.550781 -56.457031 L 29.964844 -56.539062 L 27.621094 -56.375 L 22.777344 -56.375 L 21.160156 -56.699219 L 19.546875 -56.699219 L 18.09375 -56.296875 L 16.476562 -56.296875 L 14.859375 -56.617188 L 13.085938 -56.699219 L 8.320312 -56.296875 L 6.867188 -55.488281 L 5.894531 -53.226562 L 5.976562 -34.730469 L 6.136719 -33.113281 L 5.894531 -29.882812 L 5.976562 -28.105469 L 5.976562 -26.492188 L 6.136719 -24.957031 L 5.976562 -23.421875 L 5.894531 -16.878906 L 6.058594 -15.265625 Z M 22.777344 -29.5625 L 21.160156 -30.449219 L 20.515625 -31.742188 L 20.515625 -36.585938 L 20.351562 -37.960938 L 20.515625 -41.351562 L 21.242188 -42.886719 L 22.9375 -43.535156 L 24.554688 -43.453125 L 27.785156 -43.777344 L 30.046875 -43.292969 L 32.144531 -43.128906 L 33.679688 -42.726562 L 35.699219 -40.222656 L 36.183594 -38.929688 L 36.507812 -36.828125 L 36.265625 -34.40625 L 35.539062 -32.792969 L 34.648438 -31.582031 L 33.761719 -30.851562 L 32.308594 -30.207031 L 29.964844 -29.640625 L 28.429688 -29.5625 L 24.554688 -29.722656 Z M 22.777344 -29.5625 "/></g></g></g></svg>